<?xml version="1.0" encoding="UTF-8"?>
<svg version="1.1" xmlns="http://www.w3.org/2000/svg" width="192" height="95">
<path d="M0 0 C1.32 0.33 2.64 0.66 4 1 C4.495 2.98 4.495 2.98 5 5 C6.0725 4.835 7.145 4.67 8.25 4.5 C13.48324258 3.80223432 18.7266367 4 24 4 C24.495 4.99 24.495 4.99 25 6 C25.66 5.34 26.32 4.68 27 4 C28.32 4 29.64 4 31 4 C31 3.01 31 2.02 31 1 C33.97 1 36.94 1 40 1 C40.495 3.475 40.495 3.475 41 6 C39.68 6.33 38.36 6.66 37 7 C36.67 9.64 36.34 12.28 36 15 C22 15 8 15 -6 15 C-6.495 12.03 -6.495 12.03 -7 9 C-7.33 10.98 -7.66 12.96 -8 15 C-9.95803507 15.05389087 -11.91648909 15.09274217 -13.875 15.125 C-14.96554688 15.14820313 -16.05609375 15.17140625 -17.1796875 15.1953125 C-20 15 -20 15 -22 13 C-22.125 10.375 -22.125 10.375 -22 8 C-22.66 8 -23.32 8 -24 8 C-24 10.31 -24 12.62 -24 15 C-26.97 15 -29.94 15 -33 15 C-33 14.34 -33 13.68 -33 13 C-34.65 13 -36.3 13 -38 13 C-38 13.66 -38 14.32 -38 15 C-39.65 15 -41.3 15 -43 15 C-42.36843005 9.94744036 -40.86540627 5.70406799 -39 1 C-37.02 1 -35.04 1 -33 1 C-32.01 3.31 -31.02 5.62 -30 8 C-29.67 6.68 -29.34 5.36 -29 4 C-25.66666667 4 -22.33333333 4 -19 4 C-18.154375 3.979375 -17.30875 3.95875 -16.4375 3.9375 C-14 4 -14 4 -13 5 C-12.67 3.68 -12.34 2.36 -12 1 C-10.68 1 -9.36 1 -8 1 C-7.505 2.485 -7.505 2.485 -7 4 C-5.02 4.33 -3.04 4.66 -1 5 C-0.67 3.35 -0.34 1.7 0 0 Z M-18 9 C-18 9.66 -18 10.32 -18 11 C-15.03 11.495 -15.03 11.495 -12 12 C-12 10.35 -12 8.7 -12 7 C-14.08428209 7 -16.09817964 8.21976601 -18 9 Z M9 8 C8.67 8.99 8.34 9.98 8 11 C9.65 11 11.3 11 13 11 C12.67 10.01 12.34 9.02 12 8 C11.01 8 10.02 8 9 8 Z " fill="#1B1B1B" transform="translate(123,46)"/>
<path d="M0 0 C0.86625 0.185625 1.7325 0.37125 2.625 0.5625 C4.29599977 0.25161632 5.96371537 -0.07830332 7.625 -0.4375 C8.285 -0.1075 8.945 0.2225 9.625 0.5625 C9.625 2.2125 9.625 3.8625 9.625 5.5625 C10.615 3.5825 11.605 1.6025 12.625 -0.4375 C13.615 -0.4375 14.605 -0.4375 15.625 -0.4375 C16.285 1.2125 16.945 2.8625 17.625 4.5625 C17.955 2.9125 18.285 1.2625 18.625 -0.4375 C21.595 -0.4375 24.565 -0.4375 27.625 -0.4375 C27.625 0.8825 27.625 2.2025 27.625 3.5625 C28.615 3.5625 29.605 3.5625 30.625 3.5625 C30.625 2.2425 30.625 0.9225 30.625 -0.4375 C32.41658489 -0.46446365 34.20828473 -0.48387917 36 -0.5 C36.99773437 -0.51160156 37.99546875 -0.52320313 39.0234375 -0.53515625 C41.625 -0.4375 41.625 -0.4375 43.625 0.5625 C45.11 0.2840625 45.11 0.2840625 46.625 0 C47.615 -0.144375 48.605 -0.28875 49.625 -0.4375 C50.285 0.2225 50.945 0.8825 51.625 1.5625 C51.955 0.9025 52.285 0.2425 52.625 -0.4375 C56.915 -0.4375 61.205 -0.4375 65.625 -0.4375 C65.625 0.5525 65.625 1.5425 65.625 2.5625 C64.635 2.5625 63.645 2.5625 62.625 2.5625 C62.625 4.8725 62.625 7.1825 62.625 9.5625 C61.635 9.5625 60.645 9.5625 59.625 9.5625 C59.625 7.2525 59.625 4.9425 59.625 2.5625 C58.965 3.8825 58.305 5.2025 57.625 6.5625 C56.965 6.5625 56.305 6.5625 55.625 6.5625 C55.295 7.5525 54.965 8.5425 54.625 9.5625 C50.29166667 9.5625 45.95833333 9.5625 41.625 9.5625 C40.75746094 9.59730469 39.88992187 9.63210937 38.99609375 9.66796875 C38.02800781 9.69503906 37.05992188 9.72210938 36.0625 9.75 C35.09183594 9.78480469 34.12117188 9.81960937 33.12109375 9.85546875 C32.29738281 9.75878906 31.47367188 9.66210938 30.625 9.5625 C29.965 8.5725 29.305 7.5825 28.625 6.5625 C28.295 7.5525 27.965 8.5425 27.625 9.5625 C26.635 9.5625 25.645 9.5625 24.625 9.5625 C24.625 8.2425 24.625 6.9225 24.625 5.5625 C23.635 6.0575 23.635 6.0575 22.625 6.5625 C22.295 7.5525 21.965 8.5425 21.625 9.5625 C17.99971432 9.76390476 15.75998292 9.42026765 12.625 7.5625 C12.625 8.2225 12.625 8.8825 12.625 9.5625 C11.903125 9.376875 11.18125 9.19125 10.4375 9 C7.43826612 8.53345251 5.56358317 8.91744516 2.625 9.5625 C-0.5625 9.75 -0.5625 9.75 -3.375 9.5625 C-5.375 7.5625 -5.375 7.5625 -5.6875 4.5625 C-5.584375 3.5725 -5.48125 2.5825 -5.375 1.5625 C-2.375 -0.4375 -2.375 -0.4375 0 0 Z M-2.375 2.5625 C-2.375 3.8825 -2.375 5.2025 -2.375 6.5625 C-1.715 5.9025 -1.055 5.2425 -0.375 4.5625 C0.945 4.5625 2.265 4.5625 3.625 4.5625 C3.625 3.9025 3.625 3.2425 3.625 2.5625 C1.645 2.5625 -0.335 2.5625 -2.375 2.5625 Z M36.625 4.5625 C36.625 5.2225 36.625 5.8825 36.625 6.5625 C37.615 6.8925 38.605 7.2225 39.625 7.5625 C39.625 6.9025 39.625 6.2425 39.625 5.5625 C38.635 5.2325 37.645 4.9025 36.625 4.5625 Z " fill="#202020" transform="translate(86.375,34.4375)"/>
<path d="M0 0 C4.20805743 3.56066398 5.05513097 7.76027176 6 13 C5.67 13.66 5.34 14.32 5 15 C2.6875 15 2.6875 15 0 14 C-1.38293093 11.44481903 -2.21791649 8.79133871 -3 6 C-5.92557568 5.57186697 -8.11457896 5.44115285 -10.67797852 7.05908203 C-15.2554567 10.95785561 -18.33847358 15.08506721 -21.375 20.25 C-21.81199219 20.96929687 -22.24898437 21.68859375 -22.69921875 22.4296875 C-24.20706604 24.9225372 -25.6967955 27.39359101 -27 30 C-28.65 29.67 -30.3 29.34 -32 29 C-31.67 26.69 -31.34 24.38 -31 22 C-30.34 22 -29.68 22 -29 22 C-28.74476562 21.28714844 -28.48953125 20.57429688 -28.2265625 19.83984375 C-23.22399792 8.25747289 -13.45925174 -3.43078966 0 0 Z " fill="#1F1F1F" transform="translate(60,33)"/>
<path d="M0 0 C2.97 0 5.94 0 9 0 C9.495 2.475 9.495 2.475 10 5 C8.68 5.33 7.36 5.66 6 6 C5.67 8.64 5.34 11.28 5 14 C1 14 -3 14 -7 14 C-8.08474609 14.01740234 -8.08474609 14.01740234 -9.19140625 14.03515625 C-9.97386719 14.04417969 -10.75632813 14.05320312 -11.5625 14.0625 C-12.74005859 14.07990234 -12.74005859 14.07990234 -13.94140625 14.09765625 C-16 14 -16 14 -18 13 C-18.625 10.4375 -18.625 10.4375 -19 8 C-20.65 8.33 -22.3 8.66 -24 9 C-23.814375 8.38125 -23.62875 7.7625 -23.4375 7.125 C-22.76313824 4.95839822 -22.76313824 4.95839822 -24 3 C-18.33333333 3 -12.66666667 3 -7 3 C-6.67 3.66 -6.34 4.32 -6 5 C-5.34 4.34 -4.68 3.68 -4 3 C-2.68 3 -1.36 3 0 3 C0 2.01 0 1.02 0 0 Z " fill="#3D3D3D" transform="translate(154,47)"/>
<path d="M0 0 C1.32 0.33 2.64 0.66 4 1 C4.33 2.32 4.66 3.64 5 5 C6.32 5.33 7.64 5.66 9 6 C8.67 7.32 8.34 8.64 8 10 C10.475 10.495 10.475 10.495 13 11 C12.67 12.32 12.34 13.64 12 15 C6 15 0 15 -6 15 C-6.2165625 13.63875 -6.2165625 13.63875 -6.4375 12.25 C-6.86409473 9.78523044 -7.35074221 7.41152893 -8 5 C-3.25 4 -3.25 4 -1 4 C-0.67 2.68 -0.34 1.36 0 0 Z " fill="#232323" transform="translate(123,46)"/>
<path d="M0 0 C2.64 0 5.28 0 8 0 C8.33 1.65 8.66 3.3 9 5 C7.68 5.33 6.36 5.66 5 6 C4.67 8.64 4.34 11.28 4 14 C2.35 14 0.7 14 -1 14 C-0.67 11.69 -0.34 9.38 0 7 C-0.99 6.67 -1.98 6.34 -3 6 C-2.34 5.67 -1.68 5.34 -1 5 C-0.34444881 2.47266765 -0.34444881 2.47266765 0 0 Z " fill="#0D0D0D" transform="translate(155,47)"/>
<path d="M0 0 C2 3.75 2 3.75 2 6 C3.32 6.33 4.64 6.66 6 7 C6.33 6.34 6.66 5.68 7 5 C7.66 5.33 8.32 5.66 9 6 C9.33 4.68 9.66 3.36 10 2 C11.32 1.67 12.64 1.34 14 1 C15.5625 3.3125 15.5625 3.3125 17 6 C16.67 6.99 16.34 7.98 16 9 C10.53724263 9 5.41258191 8.8169935 0 8 C0 5.36 0 2.72 0 0 Z " fill="#252525" transform="translate(121,35)"/>
<path d="M0 0 C0 1.32 0 2.64 0 4 C0.99 4 1.98 4 3 4 C3.33 3.01 3.66 2.02 4 1 C4.33 1 4.66 1 5 1 C5 3.97 5 6.94 5 10 C4.34 10 3.68 10 3 10 C2.34 9.01 1.68 8.02 1 7 C0.67 7.99 0.34 8.98 0 10 C-0.99 10 -1.98 10 -3 10 C-3 8.68 -3 7.36 -3 6 C-4.32 6 -5.64 6 -7 6 C-7.33 6.99 -7.66 7.98 -8 9 C-8 7.68 -8 6.36 -8 5 C-6.68 5 -5.36 5 -4 5 C-4.95865509 2.66924071 -4.95865509 2.66924071 -8 1 C-5.29120665 -0.35439668 -2.99066732 -0.06501451 0 0 Z " fill="#141414" transform="translate(114,34)"/>
<path d="M0 0 C0.99 0 1.98 0 3 0 C3.66 1.65 4.32 3.3 5 5 C5.33 3.35 5.66 1.7 6 0 C9 1 9 1 10.1875 3.0625 C10.455625 3.701875 10.72375 4.34125 11 5 C9.68 5 8.36 5 7 5 C7.99 5.66 8.98 6.32 10 7 C9.67 7.99 9.34 8.98 9 10 C4.72656908 10.36629408 2.51187196 9.40814077 -1 7 C-0.67 4.69 -0.34 2.38 0 0 Z " fill="#101010" transform="translate(99,34)"/>
<path d="M0 0 C0.33 0 0.66 0 1 0 C1 4.79648079 0.70519274 9.23994903 0 14 C-2.97 13.505 -2.97 13.505 -6 13 C-7.01925446 9.75691762 -7.15750057 8.37302767 -5.8125 5.1875 C-5.214375 4.465625 -4.61625 3.74375 -4 3 C-2.68 3 -1.36 3 0 3 C0 2.01 0 1.02 0 0 Z " fill="#3E3E3E" transform="translate(154,47)"/>
<path d="M0 0 C2.33944736 0.28730055 4.6739143 0.61936779 7 1 C7 4.3 7 7.6 7 11 C5.02 11 3.04 11 1 11 C0.7834375 9.63875 0.7834375 9.63875 0.5625 8.25 C0.07533901 5.13728293 0.07533901 5.13728293 -0.625 2.6875 C-0.74875 2.130625 -0.8725 1.57375 -1 1 C-0.67 0.67 -0.34 0.34 0 0 Z " fill="#303030" transform="translate(116,50)"/>
<path d="M0 0 C3.63 0 7.26 0 11 0 C12 4 12 4 11 7 C10.01 7.495 10.01 7.495 9 8 C9 7.34 9 6.68 9 6 C7.68 5.67 6.36 5.34 5 5 C4.67 6.32 4.34 7.64 4 9 C4.99 9.33 5.98 9.66 7 10 C5.35 10 3.7 10 2 10 C1.77213542 7.98177083 1.54427083 5.96354167 1.31640625 3.9453125 C1.08707039 1.92595684 1.08707039 1.92595684 0 0 Z " fill="#2F2F2F" transform="translate(117,34)"/>
<path d="M0 0 C1.98 0 3.96 0 6 0 C7.0326802 2.78823655 7.04509293 3.8677274 6.0625 6.75 C5.711875 7.4925 5.36125 8.235 5 9 C4.236875 8.79375 3.47375 8.5875 2.6875 8.375 C-0.21885944 7.66608797 -0.21885944 7.66608797 -3 10 C-2.01 6.7 -1.02 3.4 0 0 Z " fill="#141414" transform="translate(84,47)"/>
<path d="M0 0 C1.98 0.495 1.98 0.495 4 1 C3.67 5.62 3.34 10.24 3 15 C2.01 15 1.02 15 0 15 C-0.19390729 12.68802845 -0.37996367 10.3753971 -0.5625 8.0625 C-0.71912109 6.13083984 -0.71912109 6.13083984 -0.87890625 4.16015625 C-0.91886719 3.11730469 -0.95882812 2.07445312 -1 1 C-0.67 0.67 -0.34 0.34 0 0 Z " fill="#070707" transform="translate(123,46)"/>
<path d="M0 0 C0.99 0 1.98 0 3 0 C3 4.62 3 9.24 3 14 C1.68 14 0.36 14 -1 14 C-0.67 9.38 -0.34 4.76 0 0 Z " fill="#070707" transform="translate(112,47)"/>
<path d="M0 0 C1.65 0 3.3 0 5 0 C5 1.65 5 3.3 5 5 C5.66 4.67 6.32 4.34 7 4 C7 4.66 7 5.32 7 6 C7.66 6.33 8.32 6.66 9 7 C8.67 7.66 8.34 8.32 8 9 C5.5625 8.625 5.5625 8.625 3 8 C2.67 7.34 2.34 6.68 2 6 C1.34 6.66 0.68 7.32 0 8 C0.33 6.35 0.66 4.7 1 3 C1.66 3 2.32 3 3 3 C3 2.34 3 1.68 3 1 C2.01 0.67 1.02 0.34 0 0 Z " fill="#1D1D1D" transform="translate(91,35)"/>
<path d="M0 0 C1.65 0 3.3 0 5 0 C5.33 1.65 5.66 3.3 6 5 C4.68 5.33 3.36 5.66 2 6 C1.67 8.64 1.34 11.28 1 14 C0.67 14 0.34 14 0 14 C0 9.38 0 4.76 0 0 Z " fill="#383838" transform="translate(158,47)"/>
<path d="M0 0 C1.98 0 3.96 0 6 0 C6 2.97 6 5.94 6 9 C5.01 9 4.02 9 3 9 C3 8.34 3 7.68 3 7 C2.34 6.67 1.68 6.34 1 6 C1.20625 5.38125 1.4125 4.7625 1.625 4.125 C1.74875 3.42375 1.8725 2.7225 2 2 C1.34 1.34 0.68 0.68 0 0 Z " fill="#060606" transform="translate(141,52)"/>
<path d="M0 0 C2.70313576 -0.21917317 4.43958382 -0.32851983 6.8125 1.0625 C8.60842137 3.99268751 8.18977574 6.6472953 8 10 C7.34 10 6.68 10 6 10 C5.67 8.35 5.34 6.7 5 5 C3.35 5.33 1.7 5.66 0 6 C0.185625 5.38125 0.37125 4.7625 0.5625 4.125 C1.23686176 1.95839822 1.23686176 1.95839822 0 0 Z " fill="#323232" transform="translate(130,50)"/>
<path d="M0 0 C0.66 0.33 1.32 0.66 2 1 C1.28972656 1.69867188 0.57945313 2.39734375 -0.15234375 3.1171875 C-1.07144531 4.02726562 -1.99054687 4.93734375 -2.9375 5.875 C-4.31228516 7.23238281 -4.31228516 7.23238281 -5.71484375 8.6171875 C-8.01187627 10.77682255 -8.01187627 10.77682255 -9 13 C-9.66 13 -10.32 13 -11 13 C-9.66342976 10.09663689 -8.15277429 7.7897189 -6.0625 5.375 C-5.55847656 4.78460938 -5.05445313 4.19421875 -4.53515625 3.5859375 C-3 2 -3 2 0 0 Z " fill="#363636" transform="translate(47,34)"/>
<path d="M0 0 C1.98 0.495 1.98 0.495 4 1 C4 1.99 4 2.98 4 4 C3.34 4.66 2.68 5.32 2 6 C2.3185177 8.10820797 2.3185177 8.10820797 3 10 C1.68 9.67 0.36 9.34 -1 9 C-1.125 2.25 -1.125 2.25 0 0 Z " fill="#424242" transform="translate(90,34)"/>
<path d="M0 0 C2.0625 0.4375 2.0625 0.4375 4 1 C4.33 2.32 4.66 3.64 5 5 C3.35 5.33 1.7 5.66 0 6 C-0.38218767 4.34385343 -0.71395102 2.67542976 -1 1 C-0.67 0.67 -0.34 0.34 0 0 Z " fill="#E7E7E7" transform="translate(132,36)"/>
<path d="M0 0 C3 1 3 1 4.1875 3.0625 C4.455625 3.701875 4.72375 4.34125 5 5 C3.68 5 2.36 5 1 5 C1.99 5.66 2.98 6.32 4 7 C3.67 7.99 3.34 8.98 3 10 C2.01 10 1.02 10 0 10 C-1.231394 6.30581799 -0.64432764 3.7943739 0 0 Z " fill="#5E5E5E" transform="translate(105,34)"/>
<path d="M0 0 C2.0625 0.4375 2.0625 0.4375 4 1 C4 2.32 4 3.64 4 5 C2.68 5.33 1.36 5.66 0 6 C-0.38218767 4.34385343 -0.71395102 2.67542976 -1 1 C-0.67 0.67 -0.34 0.34 0 0 Z " fill="#373737" transform="translate(61,49)"/>
<path d="M0 0 C0.99 0.33 1.98 0.66 3 1 C3.6875 3.0625 3.6875 3.0625 4 5 C3.236875 4.79375 2.47375 4.5875 1.6875 4.375 C-1.21885944 3.66608797 -1.21885944 3.66608797 -4 6 C-3.6875 4.125 -3.6875 4.125 -3 2 C-2.01 1.34 -1.02 0.68 0 0 Z " fill="#4F4F4F" transform="translate(85,51)"/>
<path d="M0 0 C1.98 0.495 1.98 0.495 4 1 C3.67 2.32 3.34 3.64 3 5 C1.68 4.67 0.36 4.34 -1 4 C-0.67 2.68 -0.34 1.36 0 0 Z " fill="#2E2E2E" transform="translate(123,46)"/>
<path d="M0 0 C2 3.75 2 3.75 2 6 C3.32 6.66 4.64 7.32 6 8 C3 9 3 9 0 8 C0 5.36 0 2.72 0 0 Z " fill="#151515" transform="translate(121,35)"/>
<path d="M0 0 C0.33 0 0.66 0 1 0 C1 2.97 1 5.94 1 9 C0.34 9 -0.32 9 -1 9 C-1.66 7.35 -2.32 5.7 -3 4 C-2.34 4 -1.68 4 -1 4 C-0.67 2.68 -0.34 1.36 0 0 Z " fill="#1B1B1B" transform="translate(118,35)"/>
<path d="M0 0 C0.99 0 1.98 0 3 0 C4.125 3.75 4.125 3.75 3 6 C2.01 6 1.02 6 0 6 C-1 3 -1 3 0 0 Z " fill="#383838" transform="translate(99,34)"/>
<path d="" fill="#636363" transform="translate(0,0)"/>
<path d="" fill="#636363" transform="translate(0,0)"/>
</svg>
