<?xml version="1.0" encoding="UTF-8"?>
<svg version="1.1" xmlns="http://www.w3.org/2000/svg" width="96" height="63">
<path d="M0 0 C31.68 0 63.36 0 96 0 C96 20.79 96 41.58 96 63 C64.32 63 32.64 63 0 63 C0 42.21 0 21.42 0 0 Z " fill="#060606" transform="translate(0,0)"/>
<path d="M0 0 C19.48648649 0 19.48648649 0 25 4 C28.58051242 7.58051242 30.07918609 11.41049226 32 16 C32.52400391 14.39318359 32.52400391 14.39318359 33.05859375 12.75390625 C33.51807145 11.35671896 33.97771546 9.95958635 34.4375 8.5625 C34.66759766 7.85544922 34.89769531 7.14839844 35.13476562 6.41992188 C36.88671875 1.11328125 36.88671875 1.11328125 38 0 C41.3 0 44.6 0 48 0 C51.63 10.23 55.26 20.46 59 31 C59.33 21.1 59.66 11.2 60 1 C65.0428125 0.9071875 65.0428125 0.9071875 70.1875 0.8125 C71.76374146 0.77153198 71.76374146 0.77153198 73.37182617 0.72973633 C82.08459005 0.65204076 82.08459005 0.65204076 86 4 C87.59869331 7.19738662 87.51085495 10.530167 87 14 C85 17 85 17 83 19 C83.61875 19.268125 84.2375 19.53625 84.875 19.8125 C87 21 87 21 89 24 C88.91849479 28.40128138 88.45355387 30.4509611 85.625 33.875 C81.47139649 37.23744093 78.33995118 37.11957785 73.14453125 37.09765625 C72.15207649 37.09553383 72.15207649 37.09553383 71.13957214 37.09336853 C69.03050172 37.08777996 66.92153823 37.07522965 64.8125 37.0625 C63.38086091 37.05748352 61.94922015 37.05292087 60.51757812 37.04882812 C57.01168412 37.0378143 53.5058525 37.02055755 50 37 C49.505 33.535 49.505 33.535 49 30 C45.04 30 41.08 30 37 30 C36.67 31.65 36.34 33.3 36 35 C35.505 35.99 35.505 35.99 35 37 C32.03 37 29.06 37 26 37 C26 35.35 26 33.7 26 32 C24.6078125 32.9590625 24.6078125 32.9590625 23.1875 33.9375 C15.0821189 39.18215836 12.32891789 37 0 37 C0 24.79 0 12.58 0 0 Z " fill="#F6F6F6" transform="translate(2,2)"/>
<path d="M0 0 C1.34061543 0.30271961 2.67405895 0.63837971 4 1 C6.10188008 1.07317073 6.10188008 1.07317073 8.5 0.4375 C11 0 11 0 13 1 C13 2.98 13 4.96 13 7 C13.99 7 14.98 7 16 7 C16 5.02 16 3.04 16 1 C19.465 0.505 19.465 0.505 23 0 C22.67 1.98 22.34 3.96 22 6 C24.475 6.495 24.475 6.495 27 7 C27 6.34 27 5.68 27 5 C26.01 4.67 25.02 4.34 24 4 C24.33 2.68 24.66 1.36 25 0 C25.99 0.33 26.98 0.66 28 1 C27.34 1.66 26.68 2.32 26 3 C26.99 3 27.98 3 29 3 C29.66 2.01 30.32 1.02 31 0 C32.98 0.33 34.96 0.66 37 1 C37 1.99 37 2.98 37 4 C37.99 4 38.98 4 40 4 C40.33 3.01 40.66 2.02 41 1 C45.01804691 0.15901344 48.01803543 -0.05404945 52 1 C51.34 1.66 50.68 2.32 50 3 C50.99 3.66 51.98 4.32 53 5 C52.67 5.99 52.34 6.98 52 8 C50.35 8.33 48.7 8.66 47 9 C47.99 9.66 48.98 10.32 50 11 C49.34 11 48.68 11 48 11 C48 13.31 48 15.62 48 18 C43.44615385 18.36923077 43.44615385 18.36923077 41.1875 16.5 C40.795625 16.005 40.40375 15.51 40 15 C39.67 15.99 39.34 16.98 39 18 C39 15.69 39 13.38 39 11 C37.68 11 36.36 11 35 11 C35 11.66 35 12.32 35 13 C35.99 13 36.98 13 38 13 C38 13.66 38 14.32 38 15 C37.01 15 36.02 15 35 15 C35 15.66 35 16.32 35 17 C35.99 17.33 36.98 17.66 38 18 C36.35 18 34.7 18 33 18 C33 16.02 33 14.04 33 12 C32.34 12 31.68 12 31 12 C31 13.98 31 15.96 31 18 C30.34 18 29.68 18 29 18 C29 15.69 29 13.38 29 11 C28.34 11 27.68 11 27 11 C27 13.31 27 15.62 27 18 C25.68 18 24.36 18 23 18 C23 17.01 23 16.02 23 15 C22.01 15 21.02 15 20 15 C19.67 15.99 19.34 16.98 19 18 C14.25 18.125 14.25 18.125 12 17 C11.34 17.33 10.68 17.66 10 18 C9.67 17.34 9.34 16.68 9 16 C8.67 16.66 8.34 17.32 8 18 C6.68 18 5.36 18 4 18 C4 17.34 4 16.68 4 16 C2.35 16.66 0.7 17.32 -1 18 C-0.505 16.515 -0.505 16.515 0 15 C0.99 15 1.98 15 3 15 C3 14.34 3 13.68 3 13 C2.34 13 1.68 13 1 13 C1.33 11.68 1.66 10.36 2 9 C1.01 8.67 0.02 8.34 -1 8 C-1.04241723 5.66705225 -1.04092937 3.33297433 -1 1 C-0.67 0.67 -0.34 0.34 0 0 Z " fill="#343434" transform="translate(3,43)"/>
<path d="M0 0 C1.34061543 0.30271961 2.67405895 0.63837971 4 1 C6.10188008 1.07317073 6.10188008 1.07317073 8.5 0.4375 C11 0 11 0 13 1 C13 2.98 13 4.96 13 7 C11.02 6.34 9.04 5.68 7 5 C7 5.66 7 6.32 7 7 C8.32 7.33 9.64 7.66 11 8 C11 8.99 11 9.98 11 11 C13.15634036 11 14.92446352 10.5534764 17 10 C17.33 10.66 17.66 11.32 18 12 C17.01 12 16.02 12 15 12 C15 13.32 15 14.64 15 16 C15.99 16 16.98 16 18 16 C18 16.66 18 17.32 18 18 C17.195625 17.814375 16.39125 17.62875 15.5625 17.4375 C14.716875 17.293125 13.87125 17.14875 13 17 C12.67 17.33 12.34 17.66 12 18 C11.34 18 10.68 18 10 18 C9.67 17.34 9.34 16.68 9 16 C8.67 16.66 8.34 17.32 8 18 C6.68 18 5.36 18 4 18 C4 17.34 4 16.68 4 16 C2.35 16.66 0.7 17.32 -1 18 C-0.505 16.515 -0.505 16.515 0 15 C0.99 15 1.98 15 3 15 C3 14.34 3 13.68 3 13 C2.34 13 1.68 13 1 13 C1.33 11.68 1.66 10.36 2 9 C1.01 8.67 0.02 8.34 -1 8 C-1.04241723 5.66705225 -1.04092937 3.33297433 -1 1 C-0.67 0.67 -0.34 0.34 0 0 Z " fill="#2C2C2C" transform="translate(3,43)"/>
<path d="M0 0 C-0.33 1.98 -0.66 3.96 -1 6 C-0.01 6.33 0.98 6.66 2 7 C3.75 8.0625 3.75 8.0625 5 10 C4.95083075 12.76440449 4.49379576 15.26167805 4 18 C2.68 18 1.36 18 0 18 C0 17.01 0 16.02 0 15 C-0.99 15 -1.98 15 -3 15 C-3.33 15.99 -3.66 16.98 -4 18 C-6.475 17.01 -6.475 17.01 -9 16 C-8.67 14.35 -8.34 12.7 -8 11 C-8.33 11 -8.66 11 -9 11 C-9.66 11.66 -10.32 12.32 -11 13 C-11.268125 12.360625 -11.53625 11.72125 -11.8125 11.0625 C-12.88667752 8.66868314 -12.88667752 8.66868314 -16 8 C-16 7.01 -16 6.02 -16 5 C-12.97580475 5.58803797 -9.98241547 6.22678118 -7 7 C-7 5.02 -7 3.04 -7 1 C-4.53721199 -0.231394 -2.7204945 -0.07159196 0 0 Z " fill="#242424" transform="translate(26,43)"/>
<path d="M0 0 C6 0 6 0 8.875 1.9375 C11.36997333 5.53319685 11.68576604 7.55693797 11.4140625 11.83984375 C10.76254389 15.23880404 9.7005597 16.85340127 7 19 C4.69 19 2.38 19 0 19 C0 12.73 0 6.46 0 0 Z " fill="#050505" transform="translate(12,11)"/>
<path d="M0 0 C2.64 0.33 5.28 0.66 8 1 C8 2.98 8 4.96 8 7 C11.73639216 5.75453595 12.18756513 4.36595047 14 1 C14.66 1.33 15.32 1.66 16 2 C15 4 15 4 14 5 C14.99 5 15.98 5 17 5 C16.67 5.66 16.34 6.32 16 7 C15.01 6.67 14.02 6.34 13 6 C13 6.66 13 7.32 13 8 C8.71 8 4.42 8 0 8 C0 5.36 0 2.72 0 0 Z " fill="#5A5A5A" transform="translate(66,53)"/>
<path d="M0 0 C7.75 -0.125 7.75 -0.125 10 1 C10 2.65 10 4.3 10 6 C6.78548731 7.60725635 3.56387464 7.05748185 0 7 C0 4.69 0 2.38 0 0 Z " fill="#0D0D0D" transform="translate(71,24)"/>
<path d="M0 0 C3.375 -0.125 3.375 -0.125 7 0 C9 2 9 2 9 6 C6.04335481 7.4783226 3.25770263 7.06032783 0 7 C0 4.69 0 2.38 0 0 Z " fill="#141414" transform="translate(71,10)"/>
<path d="M0 0 C3.625 -0.1875 3.625 -0.1875 7 0 C6.01 0.495 6.01 0.495 5 1 C5 3.31 5 5.62 5 8 C0.44615385 8.36923077 0.44615385 8.36923077 -1.8125 6.5 C-2.204375 6.005 -2.59625 5.51 -3 5 C-3.33 5.99 -3.66 6.98 -4 8 C-4 5.69 -4 3.38 -4 1 C-3.34 1.66 -2.68 2.32 -2 3 C-1.34 2.01 -0.68 1.02 0 0 Z " fill="#484848" transform="translate(46,53)"/>
<path d="M0 0 C1.34061543 0.30271961 2.67405895 0.63837971 4 1 C6.15634036 1 7.92446352 0.5534764 10 0 C10.33 0.66 10.66 1.32 11 2 C10.01 2 9.02 2 8 2 C8 3.32 8 4.64 8 6 C8.99 6 9.98 6 11 6 C11 6.66 11 7.32 11 8 C10.195625 7.814375 9.39125 7.62875 8.5625 7.4375 C7.716875 7.293125 6.87125 7.14875 6 7 C5.67 7.33 5.34 7.66 5 8 C3 8 3 8 1.375 6.5 C0.92125 6.005 0.4675 5.51 0 5 C-0.33 5.66 -0.66 6.32 -1 7 C-1.04254356 5.00045254 -1.04080783 2.99958364 -1 1 C-0.67 0.67 -0.34 0.34 0 0 Z " fill="#595959" transform="translate(10,53)"/>
<path d="M0 0 C1.32 0.33 2.64 0.66 4 1 C3.01 1 2.02 1 1 1 C1 1.66 1 2.32 1 3 C1.99 3 2.98 3 4 3 C4 3.66 4 4.32 4 5 C3.01 5 2.02 5 1 5 C1 5.66 1 6.32 1 7 C2.32 7 3.64 7 5 7 C5 4.69 5 2.38 5 0 C5.66 0 6.32 0 7 0 C7.66 0.99 8.32 1.98 9 3 C9.66 2.34 10.32 1.68 11 1 C11 3.31 11 5.62 11 8 C10.01 7.34 9.02 6.68 8 6 C7.67 6.66 7.34 7.32 7 8 C4.69 8 2.38 8 0 8 C0 5.36 0 2.72 0 0 Z " fill="#616161" transform="translate(54,53)"/>
<path d="M0 0 C3.69230769 0.69230769 3.69230769 0.69230769 5 2 C5.125 4.5 5.125 4.5 5 7 C4 8 4 8 1.4375 8.0625 C0.633125 8.041875 -0.17125 8.02125 -1 8 C-1.04241723 5.66705225 -1.04092937 3.33297433 -1 1 C-0.67 0.67 -0.34 0.34 0 0 Z " fill="#424242" transform="translate(3,43)"/>
<path d="M0 0 C2.00720923 0.28674418 4.0085944 0.61866701 6 1 C6 2.98 6 4.96 6 7 C4.02 6.34 2.04 5.68 0 5 C0 5.66 0 6.32 0 7 C1.98 7.495 1.98 7.495 4 8 C2.35 8 0.7 8 -1 8 C-1.04241723 5.66705225 -1.04092937 3.33297433 -1 1 C-0.67 0.67 -0.34 0.34 0 0 Z " fill="#4E4E4E" transform="translate(10,43)"/>
<path d="M0 0 C0.99 0.33 1.98 0.66 3 1 C2.34 1.66 1.68 2.32 1 3 C1.99 3 2.98 3 4 3 C4.66 2.01 5.32 1.02 6 0 C7.32 0.33 8.64 0.66 10 1 C8.68 1.33 7.36 1.66 6 2 C6 3.65 6 5.3 6 7 C6.99 7.33 7.98 7.66 9 8 C5.7 8 2.4 8 -1 8 C-0.01 7.67 0.98 7.34 2 7 C2 6.34 2 5.68 2 5 C1.01 4.67 0.02 4.34 -1 4 C-0.67 2.68 -0.34 1.36 0 0 Z " fill="#636363" transform="translate(28,43)"/>
<path d="M0 0 C0.66 0.33 1.32 0.66 2 1 C2.6328125 3.06640625 2.6328125 3.06640625 3.125 5.5625 C3.29257812 6.38878906 3.46015625 7.21507812 3.6328125 8.06640625 C3.75398438 8.70449219 3.87515625 9.34257812 4 10 C2.02 10 0.04 10 -2 10 C-1.54177532 6.53058454 -1.10868317 3.32604951 0 0 Z " fill="#252525" transform="translate(44,15)"/>
<path d="M0 0 C3.82097239 0.53069061 6.06171403 1.49701566 9 4 C8.34 4 7.68 4 7 4 C6.34 5.32 5.68 6.64 5 8 C4.731875 7.360625 4.46375 6.72125 4.1875 6.0625 C3.11332248 3.66868314 3.11332248 3.66868314 0 3 C0 2.01 0 1.02 0 0 Z " fill="#0D0D0D" transform="translate(10,48)"/>
<path d="M0 0 C0 0.66 0 1.32 0 2 C-0.66 2 -1.32 2 -2 2 C-2 3.98 -2 5.96 -2 8 C-2.33 8 -2.66 8 -3 8 C-3 6.02 -3 4.04 -3 2 C-3.66 2 -4.32 2 -5 2 C-5.33 3.98 -5.66 5.96 -6 8 C-7.32 7.67 -8.64 7.34 -10 7 C-9.01 7 -8.02 7 -7 7 C-7 5.02 -7 3.04 -7 1 C-4.53721199 -0.231394 -2.7204945 -0.07159196 0 0 Z " fill="#5D5D5D" transform="translate(26,43)"/>
<path d="M0 0 C2.0625 0.4375 2.0625 0.4375 4 1 C3.01 1 2.02 1 1 1 C1 1.66 1 2.32 1 3 C1.99 3 2.98 3 4 3 C4 3.66 4 4.32 4 5 C3.01 5 2.02 5 1 5 C1 5.66 1 6.32 1 7 C1.99 7.33 2.98 7.66 4 8 C2.35 8 0.7 8 -1 8 C-1.04241723 5.66705225 -1.04092937 3.33297433 -1 1 C-0.67 0.67 -0.34 0.34 0 0 Z " fill="#565656" transform="translate(37,53)"/>
<path d="M0 0 C0.99 0.33 1.98 0.66 3 1 C2.67 2.65 2.34 4.3 2 6 C1.01 5.67 0.02 5.34 -1 5 C-0.67 3.35 -0.34 1.7 0 0 Z " fill="#030303" transform="translate(18,54)"/>
<path d="M0 0 C1.32 0 2.64 0 4 0 C3.67 1.65 3.34 3.3 3 5 C2.01 5 1.02 5 0 5 C0 3.35 0 1.7 0 0 Z " fill="#000000" transform="translate(34,45)"/>
</svg>
