<?xml version="1.0" encoding="UTF-8"?>
<svg version="1.1" xmlns="http://www.w3.org/2000/svg" width="48" height="28">
<path d="M0 0 C15.84 0 31.68 0 48 0 C48 9.24 48 18.48 48 28 C32.16 28 16.32 28 0 28 C0 18.76 0 9.52 0 0 Z " fill="#090909" transform="translate(0,0)"/>
<path d="M0 0 C0.99 0 1.98 0 3 0 C3.33 1.98 3.66 3.96 4 6 C4.39832031 5.566875 4.79664063 5.13375 5.20703125 4.6875 C5.73683594 4.130625 6.26664063 3.57375 6.8125 3 C7.33457031 2.443125 7.85664062 1.88625 8.39453125 1.3125 C10 0 10 0 13 0 C11.79618552 2.49361571 10.54571278 4.68143083 9 7 C9.3609375 7.55429688 9.721875 8.10859375 10.09375 8.6796875 C10.5578125 9.40414063 11.021875 10.12859375 11.5 10.875 C11.9640625 11.59429687 12.428125 12.31359375 12.90625 13.0546875 C14 15 14 15 14 17 C12.1875 16.8125 12.1875 16.8125 10 16 C7 11.82142857 7 11.82142857 7 9 C3.77595022 10.66954819 3.77595022 10.66954819 3.3125 13.625 C3.209375 14.40875 3.10625 15.1925 3 16 C2.01 16 1.02 16 0 16 C0 10.72 0 5.44 0 0 Z " fill="#F2F2F2" transform="translate(28,5)"/>
<path d="M0 0 C0.99 0 1.98 0 3 0 C3 2.31 3 4.62 3 7 C5.31 7 7.62 7 10 7 C10 4.69 10 2.38 10 0 C10.99 0 11.98 0 13 0 C13 5.28 13 10.56 13 16 C12.01 16 11.02 16 10 16 C10 14.02 10 12.04 10 10 C7.69 10 5.38 10 3 10 C3 11.98 3 13.96 3 16 C2.01 16 1.02 16 0 16 C0 10.72 0 5.44 0 0 Z " fill="#F5F5F5" transform="translate(11,5)"/>
<path d="M0 0 C0.99 0 1.98 0 3 0 C3 5.28 3 10.56 3 16 C2.01 16 1.02 16 0 16 C0 10.72 0 5.44 0 0 Z " fill="#FDFDFD" transform="translate(4,5)"/>
</svg>
