<?xml version="1.0" encoding="UTF-8"?>
<svg version="1.1" xmlns="http://www.w3.org/2000/svg" width="128" height="62">
<path d="M0 0 C0.99 0 1.98 0 3 0 C3 0.66 3 1.32 3 2 C4.32 2 5.64 2 7 2 C8.32 2 9.64 2 11 2 C12.02480469 1.98259766 12.02480469 1.98259766 13.0703125 1.96484375 C18.77777778 1.88888889 18.77777778 1.88888889 21 3 C23.09821215 2.60061233 23.09821215 2.60061233 25 2 C25 1.34 25 0.68 25 0 C25.66 0 26.32 0 27 0 C27 2.64 27 5.28 27 8 C22.84373632 9.00926479 18.95634906 9.10239579 14.6875 9.0625 C13.43324219 9.05347656 12.17898437 9.04445313 10.88671875 9.03515625 C9.93410156 9.02355469 8.98148438 9.01195312 8 9 C8.99 9.99 9.98 10.98 11 12 C11.99 11.67 12.98 11.34 14 11 C14.66 11.33 15.32 11.66 16 12 C16.33 11.34 16.66 10.68 17 10 C18.65 10 20.3 10 22 10 C22 10.66 22 11.32 22 12 C22.94875 11.814375 23.8975 11.62875 24.875 11.4375 C28 11 28 11 30 12 C30.33 11.01 30.66 10.02 31 9 C30.01 8.67 29.02 8.34 28 8 C28 6.35 28 4.7 28 3 C31.75 1.875 31.75 1.875 34 3 C36.3381615 2.70241581 38.67182036 2.36760731 41 2 C46 2 51 2 56 2 C56 1.34 56 0.68 56 0 C56.99 0 57.98 0 59 0 C59 0.66 59 1.32 59 2 C62.41189086 2.85297271 64.6422653 3.0420556 68 2 C68.66 2 69.32 2 70 2 C71.2375 1.938125 71.2375 1.938125 72.5 1.875 C75 2 75 2 77 4 C78.32 3.34 79.64 2.68 81 2 C81 1.34 81 0.68 81 0 C81.66 0 82.32 0 83 0 C83 2.64 83 5.28 83 8 C79.06099718 8.93680404 75.41824316 9.10432665 71.375 9.0625 C70.24835938 9.05347656 69.12171875 9.04445313 67.9609375 9.03515625 C66.98382813 9.02355469 66.00671875 9.01195312 65 9 C64.01 9 63.02 9 62 9 C60.32900023 8.68911632 58.66128463 8.35919668 57 8 C56.505 6.515 56.505 6.515 56 5 C55.34 5 54.68 5 54 5 C54 6.32 54 7.64 54 9 C50.625 9.125 50.625 9.125 47 9 C46.34 8.34 45.68 7.68 45 7 C44.38125 7.33 43.7625 7.66 43.125 8 C39.84804361 9.54209712 37.46024437 8.7284725 34 8 C33.67 8.66 33.34 9.32 33 10 C33.495 10.99 33.495 10.99 34 12 C34.99 11.67 35.98 11.34 37 11 C37.99 11.33 38.98 11.66 40 12 C41.32 12 42.64 12 44 12 C44.38218767 13.65614657 44.71395102 15.32457024 45 17 C44 18 44 18 41.80688477 18.11352539 C40.86127686 18.10828857 39.91566895 18.10305176 38.94140625 18.09765625 C37.40323242 18.09282227 37.40323242 18.09282227 35.83398438 18.08789062 C34.75439453 18.07951172 33.67480469 18.07113281 32.5625 18.0625 C31.48677734 18.05798828 30.41105469 18.05347656 29.30273438 18.04882812 C26.53511146 18.03666657 23.76758256 18.01891021 21 18 C20.34 18 19.68 18 19 18 C18.01 18 17.02 18 16 18 C16 18.66 16 19.32 16 20 C12.08212573 20.22387853 9.60287958 19.44115183 6 18 C3.29113059 17.83201738 3.29113059 17.83201738 1 18 C0.67 16.35 0.34 14.7 0 13 C0.639375 12.71125 1.27875 12.4225 1.9375 12.125 C4.15206079 11.17176549 4.15206079 11.17176549 5 9 C4.360625 8.855625 3.72125 8.71125 3.0625 8.5625 C1 8 1 8 0 7 C-0.04092937 4.66702567 -0.04241723 2.33294775 0 0 Z M66 4 C66 4.99 66 5.98 66 7 C66.66 6.34 67.32 5.68 68 5 C67.34 4.67 66.68 4.34 66 4 Z M3 5 C3 5.66 3 6.32 3 7 C3.66 7 4.32 7 5 7 C5 6.34 5 5.68 5 5 C4.34 5 3.68 5 3 5 Z M23 5 C23 5.66 23 6.32 23 7 C23.66 7 24.32 7 25 7 C25 6.34 25 5.68 25 5 C24.34 5 23.68 5 23 5 Z M59 5 C59 5.66 59 6.32 59 7 C59.66 7 60.32 7 61 7 C61 6.34 61 5.68 61 5 C60.34 5 59.68 5 59 5 Z M79 5 C79 5.66 79 6.32 79 7 C79.66 7 80.32 7 81 7 C81 6.34 81 5.68 81 5 C80.34 5 79.68 5 79 5 Z M7 11 C7 12.65 7 14.3 7 16 C7.33 16 7.66 16 8 16 C8 14.35 8 12.7 8 11 C7.67 11 7.34 11 7 11 Z M3 13 C2.67 13.99 2.34 14.98 2 16 C2.99 16 3.98 16 5 16 C4.67 15.01 4.34 14.02 4 13 C3.67 13 3.34 13 3 13 Z M13 13 C12.67 13.99 12.34 14.98 12 16 C12.99 16 13.98 16 15 16 C14.67 15.01 14.34 14.02 14 13 C13.67 13 13.34 13 13 13 Z M23 13 C22.67 13.99 22.34 14.98 22 16 C22.66 16 23.32 16 24 16 C23.67 15.01 23.34 14.02 23 13 Z M27 13 C26.67 13.99 26.34 14.98 26 16 C26.99 16 27.98 16 29 16 C28.67 15.01 28.34 14.02 28 13 C27.67 13 27.34 13 27 13 Z M39 14 C39 14.66 39 15.32 39 16 C39.66 15.67 40.32 15.34 41 15 C40.34 14.67 39.68 14.34 39 14 Z " fill="#000000" transform="translate(45,35)"/>
<path d="M0 0 C4.39656173 -0.02465504 8.7930872 -0.04283842 13.18969727 -0.05493164 C14.68644918 -0.05997121 16.18319616 -0.06680287 17.67993164 -0.07543945 C19.82699807 -0.08752159 21.97399962 -0.09323191 24.12109375 -0.09765625 C26.06133423 -0.10551147 26.06133423 -0.10551147 28.04077148 -0.11352539 C31 0 31 0 32 1 C32.04063832 2.66617115 32.042721 4.33388095 32 6 C31.34 6 30.68 6 30 6 C30 4.68 30 3.36 30 2 C29.34 2 28.68 2 28 2 C28 3.32 28 4.64 28 6 C19.09 6 10.18 6 1 6 C0.67 4.02 0.34 2.04 0 0 Z " fill="#000000" transform="translate(66,56)"/>
<path d="M0 0 C0.66 0 1.32 0 2 0 C1.99097656 0.71285156 1.98195313 1.42570313 1.97265625 2.16015625 C2.13981245 7.56002816 2.40226329 11.11089985 6.375 15 C7.56944472 16.0165487 8.7773242 17.017588 10 18 C12.08104525 19.71975267 12.89021786 20.5521207 13.5390625 23.19921875 C13.72058814 28.45521113 13.21439504 31.41102364 9.6875 35.4375 C8.48151799 36.64853854 7.25327386 37.83797092 6 39 C5.49082031 39.56847656 4.98164062 40.13695312 4.45703125 40.72265625 C3 42 3 42 0 42 C1.38459345 38.76928194 2.92636868 37.08499026 5.625 34.875 C8.46171356 32.0741942 9.63975032 30.12501374 10 26.125 C9.79257048 22.68166993 9.31984432 21.34936841 6.96875 18.78125 C5.3145205 17.33641664 3.65956492 15.89241418 2.00390625 14.44921875 C-1.14960438 10.59492798 -0.69300551 7.09678428 -0.31640625 2.30859375 C-0.21199219 1.54675781 -0.10757812 0.78492187 0 0 Z " fill="#000000" transform="translate(30,0)"/>
<path d="M0 0 C4.60355995 2.33831617 8.09802992 5.73905698 10.96875 10 C11.70307492 14.12010492 11.53526997 17.86650245 10.96875 22 C10.30875 22 9.64875 22 8.96875 22 C8.989375 21.29875 9.01 20.5975 9.03125 19.875 C8.90142742 13.90316119 8.25694817 10.58646628 3.90625 6.3125 C2.61671031 5.18160316 1.3113559 4.0673564 -0.03125 3 C-1.17751322 3.97866338 -2.32324788 4.95794587 -3.46875 5.9375 C-4.10683594 6.48277344 -4.74492188 7.02804688 -5.40234375 7.58984375 C-8.51566879 10.28507238 -8.28519881 11.87501956 -8.59375 16.0625 C-8.67753906 17.16722656 -8.76132812 18.27195312 -8.84765625 19.41015625 C-8.90824219 20.26480469 -8.96882813 21.11945312 -9.03125 22 C-10.02125 22 -11.01125 22 -12.03125 22 C-12.91101413 16.31085862 -13.28507715 11.83847689 -9.9453125 6.94140625 C-3.23036348 0 -3.23036348 0 0 0 Z " fill="#000000" transform="translate(57.03125,10)"/>
<path d="M0 0 C0.66 0 1.32 0 2 0 C1.99097656 0.71285156 1.98195313 1.42570313 1.97265625 2.16015625 C2.144774 7.72030797 2.47899345 11.18632221 6.5625 15.1875 C7.68545196 16.15228971 8.82413826 17.10045042 10 18 C13.87219355 16.14233785 16.36025627 14.49587683 19 11 C19.7121911 7.33582842 19.92818973 3.72760564 20 0 C20.99 0 21.98 0 23 0 C23.82900201 4.3292327 24.51022696 8.76095704 21.92041016 12.60058594 C18.91698103 16.06336305 15.50563029 19.05777458 12 22 C6.99006428 19.72070492 3.03016758 16.63182759 0 12 C-0.66054299 7.90663509 -0.49269028 4.10575233 0 0 Z " fill="#000000" transform="translate(71,10)"/>
<path d="M0 0 C0.66 0 1.32 0 2 0 C2.56627823 4.13173374 2.76129089 7.88504858 2 12 C-0.00390625 14.44921875 -0.00390625 14.44921875 -2.5 16.625 C-5.90365668 19.61805683 -7.74180588 21.38747818 -8.125 26 C-7.64439429 31.69606772 -4.1176788 34.60200598 0.03125 38.1875 C0.6809375 38.785625 1.330625 39.38375 2 40 C2 40.66 2 41.32 2 42 C-3.04502946 39.70473885 -6.87898066 36.60514042 -10 32 C-11.23691657 27.72015251 -11.27021919 24.27564851 -10 20 C-7.87696606 17.47060409 -5.58061606 15.45294692 -3.0703125 13.3125 C0.42840666 9.40449672 0.23581759 5.04649633 0 0 Z " fill="#000000" transform="translate(25,0)"/>
<path d="M0 0 C0.66 0 1.32 0 2 0 C1.96777344 0.68964844 1.93554688 1.37929688 1.90234375 2.08984375 C1.95348778 8.2276947 1.95348778 8.2276947 5.0703125 13.3125 C5.89273437 14.01375 6.71515625 14.715 7.5625 15.4375 C11.28424053 18.78826317 12.78788688 20.88432771 13.1875 25.9375 C12.71820767 32.58438588 9.15034157 35.91507516 4.3828125 40.234375 C2 42 2 42 0 42 C1.38459345 38.76928194 2.92636868 37.08499026 5.625 34.875 C8.46171356 32.0741942 9.63975032 30.12501374 10 26.125 C9.79257048 22.68166993 9.31984432 21.34936841 6.96875 18.78125 C5.3145205 17.33641664 3.65956492 15.89241418 2.00390625 14.44921875 C-1.14960438 10.59492798 -0.69300551 7.09678428 -0.31640625 2.30859375 C-0.21199219 1.54675781 -0.10757812 0.78492187 0 0 Z " fill="#000000" transform="translate(0,0)"/>
<path d="M0 0 C0.66 0 1.32 0 2 0 C2 0.66 2 1.32 2 2 C6.62 2 11.24 2 16 2 C16.33 3.32 16.66 4.64 17 6 C17.33 4.68 17.66 3.36 18 2 C18.66 2 19.32 2 20 2 C21.125 5.75 21.125 5.75 20 8 C16.85418577 8.02888514 13.70840531 8.04675923 10.5625 8.0625 C9.21575195 8.07506836 9.21575195 8.07506836 7.84179688 8.08789062 C6.56079102 8.09272461 6.56079102 8.09272461 5.25390625 8.09765625 C4.46314697 8.10289307 3.6723877 8.10812988 2.85766602 8.11352539 C1 8 1 8 0 7 C-0.04092937 4.66702567 -0.04241723 2.33294775 0 0 Z M2 4 C2.33 4.99 2.66 5.98 3 7 C3.66 6.67 4.32 6.34 5 6 C5 5.34 5 4.68 5 4 C4.01 4 3.02 4 2 4 Z M9 4 C9.33 4.99 9.66 5.98 10 7 C10.66 6.67 11.32 6.34 12 6 C12 5.34 12 4.68 12 4 C11.01 4 10.02 4 9 4 Z " fill="#000000" transform="translate(45,54)"/>
<path d="" fill="#000000" transform="translate(0,0)"/>
<path d="" fill="#000000" transform="translate(0,0)"/>
<path d="" fill="#000000" transform="translate(0,0)"/>
<path d="" fill="#000000" transform="translate(0,0)"/>
<path d="" fill="#000000" transform="translate(0,0)"/>
</svg>
