<?xml version="1.0" encoding="UTF-8"?>
<svg version="1.1" xmlns="http://www.w3.org/2000/svg" width="96" height="96">
<path d="M0 0 C31.68 0 63.36 0 96 0 C96 31.68 96 63.36 96 96 C64.32 96 32.64 96 0 96 C0 64.32 0 32.64 0 0 Z " fill="#030503" transform="translate(0,0)"/>
<path d="M0 0 C3.5 0.25 3.5 0.25 5.5 2.25 C5.75 5.75 5.75 5.75 5.5 9.25 C3.5 11.25 3.5 11.25 0 11.5 C-3.5 11.25 -3.5 11.25 -5.5 9.25 C-5.75 5.75 -5.75 5.75 -5.5 2.25 C-3.5 0.25 -3.5 0.25 0 0 Z " fill="#436947" transform="translate(12.5,12.75)"/>
<path d="M0 0 C-0.66 0.66 -1.32 1.32 -2 2 C-4.72869407 1.96712417 -7.2966618 1.43602229 -10 1 C-10 2.98 -10 4.96 -10 7 C-10.33 7 -10.66 7 -11 7 C-11 5.02 -11 3.04 -11 1 C-11.66 1 -12.32 1 -13 1 C-12.67 3.64 -12.34 6.28 -12 9 C-13.32 9 -14.64 9 -16 9 C-16.33 7.02 -16.66 5.04 -17 3 C-18.65 2.67 -20.3 2.34 -22 2 C-22.33 2.66 -22.66 3.32 -23 4 C-23 3.34 -23 2.68 -23 2 C-25.64 2 -28.28 2 -31 2 C-31 1.67 -31 1.34 -31 1 C-20.64305688 0.23785964 -10.3864793 -0.13430792 0 0 Z " fill="#47704C" transform="translate(76,25)"/>
<path d="M0 0 C4.62 0 9.24 0 14 0 C14.33 2.97 14.66 5.94 15 9 C13.68 9 12.36 9 11 9 C11 8.34 11 7.68 11 7 C10.01 6.67 9.02 6.34 8 6 C8.66 6 9.32 6 10 6 C10 5.34 10 4.68 10 4 C9.34 3.67 8.68 3.34 8 3 C8.99 3 9.98 3 11 3 C11 2.34 11 1.68 11 1 C7.37 1 3.74 1 0 1 C0 0.67 0 0.34 0 0 Z " fill="#47704C" transform="translate(29,27)"/>
<path d="M0 0 C0.66 0 1.32 0 2 0 C2.33 2.97 2.66 5.94 3 9 C2.01 9 1.02 9 0 9 C-0.87890625 2.84765625 -0.87890625 2.84765625 -1 1 C-0.67 0.67 -0.34 0.34 0 0 Z " fill="#47704C" transform="translate(78,24)"/>
</svg>
