<?xml version="1.0" encoding="UTF-8"?>
<svg version="1.1" xmlns="http://www.w3.org/2000/svg" width="192" height="95">
<path d="M0 0 C2.5676434 0.06286503 5.13283152 0.08200902 7.70117188 0.09375 C9.3366186 0.11207254 10.97204037 0.13281851 12.60742188 0.15625 C13.75584061 0.16899963 13.75584061 0.16899963 14.92745972 0.18200684 C18.68595049 0.28351146 20.47649545 0.42834072 23.67773438 2.5625 C23.86523438 6.1875 23.86523438 6.1875 23.67773438 9.5625 C24.66773438 9.5625 25.65773437 9.5625 26.67773438 9.5625 C26.67773438 22.7625 26.67773438 35.9625 26.67773438 49.5625 C20.30548545 49.60834352 13.93380571 49.64818922 7.56152344 49.67236328 C5.39255843 49.68243789 3.22360706 49.69609798 1.0546875 49.71337891 C-2.05797688 49.73756323 -5.17046214 49.74896832 -8.28320312 49.7578125 C-9.25720062 49.76813507 -10.23119812 49.77845764 -11.23471069 49.78909302 C-12.13549347 49.78924408 -13.03627625 49.78939514 -13.96435547 49.78955078 C-15.15682388 49.79621262 -15.15682388 49.79621262 -16.37338257 49.80300903 C-18.32226562 49.5625 -18.32226562 49.5625 -20.32226562 47.5625 C-20.32226562 46.2425 -20.32226562 44.9225 -20.32226562 43.5625 C-21.97226562 44.2225 -23.62226562 44.8825 -25.32226562 45.5625 C-25.54538297 40.11843682 -25.70833466 34.67705123 -25.81665039 29.22949219 C-25.86180998 27.37843464 -25.92315702 25.5276964 -26.0012207 23.67773438 C-26.60699114 8.94919815 -26.60699114 8.94919815 -23.94238281 3.99902344 C-17.62783087 -1.26674479 -7.76331626 -0.19213157 0 0 Z " fill="#090909" transform="translate(63.322265625,23.4375)"/>
<path d="M0 0 C10.9 0 10.9 0 14 3 C14.4375 6.0625 14.4375 6.0625 14 9 C13.34 9.66 12.68 10.32 12 11 C12.32326553 14.59679066 12.32326553 14.59679066 13 18 C13.66 18 14.32 18 15 18 C15 18.99 15 19.98 15 21 C13.25 20.875 13.25 20.875 11 20 C9.66666667 18 8.33333333 16 7 14 C4.87880872 13.04768403 4.87880872 13.04768403 3 13 C3 15.64 3 18.28 3 21 C2.01 21 1.02 21 0 21 C0 14.07 0 7.14 0 0 Z " fill="#DBDBDB" transform="translate(59,34)"/>
<path d="M0 0 C1.32 0.33 2.64 0.66 4 1 C4 6.61 4 12.22 4 18 C2.68 18 1.36 18 0 18 C-0.33 15.03 -0.66 12.06 -1 9 C-2.94268841 11.91403262 -4.46395304 14.85808576 -6 18 C-7.65 17.67 -9.3 17.34 -11 17 C-11.99 13.04 -12.98 9.08 -14 5 C-12.35 5 -10.7 5 -9 5 C-8.67 6.32 -8.34 7.64 -8 9 C-7.690625 8.0409375 -7.690625 8.0409375 -7.375 7.0625 C-6 5 -6 5 -2.875 4.25 C-1.92625 4.1675 -0.9775 4.085 0 4 C-0.33 3.34 -0.66 2.68 -1 2 C-0.67 1.34 -0.34 0.68 0 0 Z " fill="#090909" transform="translate(140,35)"/>
<path d="M0 0 C8 0 8 0 10.5625 1.6875 C12 4 12 4 11.8125 6.625 C11 9 11 9 10 11 C10.60578253 13.01927511 11.26919734 15.02253397 12 17 C9.625 16.75 9.625 16.75 7 16 C5.6875 13.9375 5.6875 13.9375 5 12 C4.67 13.65 4.34 15.3 4 17 C2.35 16.67 0.7 16.34 -1 16 C-0.67 10.72 -0.34 5.44 0 0 Z " fill="#090909" transform="translate(102,36)"/>
<path d="M0 0 C2.28549511 1.03215908 3.47358888 1.82552444 4.9375 3.875 C5.125 6.5625 5.125 6.5625 4.9375 8.875 C3.6175 9.205 2.2975 9.535 0.9375 9.875 C1.9275 9.875 2.9175 9.875 3.9375 9.875 C3.6075 11.195 3.2775 12.515 2.9375 13.875 C-3.4458448 14.35676187 -3.4458448 14.35676187 -6.0625 12.3125 C-7.50996494 8.78430422 -7.05497239 6.51406544 -6.0625 2.875 C-4.01672418 0.6175922 -3.06645811 -0.18584595 0 0 Z " fill="#191919" transform="translate(121.0625,39.125)"/>
<path d="M0 0 C0.99 0 1.98 0 3 0 C3 0.99 3 1.98 3 3 C3.99 3.33 4.98 3.66 6 4 C5.67 4.99 5.34 5.98 5 7 C4.34 7 3.68 7 3 7 C3 8.98 3 10.96 3 13 C3.99 13 4.98 13 6 13 C6 13.99 6 14.98 6 16 C4.00045254 16.04254356 1.99958364 16.04080783 0 16 C-1 15 -1 15 -1.09765625 12.93359375 C-1.08025391 11.69802734 -1.08025391 11.69802734 -1.0625 10.4375 C-1.05347656 9.61121094 -1.04445312 8.78492188 -1.03515625 7.93359375 C-1.02355469 7.29550781 -1.01195312 6.65742187 -1 6 C-1.66 6 -2.32 6 -3 6 C-3 5.01 -3 4.02 -3 3 C-2.34 3 -1.68 3 -1 3 C-0.67 2.01 -0.34 1.02 0 0 Z " fill="#090909" transform="translate(148,37)"/>
<path d="M0 0 C2.97 0 5.94 0 9 0 C9.33 0.66 9.66 1.32 10 2 C8.02 2.33 6.04 2.66 4 3 C3.74984127 6.41642759 3.74984127 6.41642759 4 10 C4.99 10.66 5.98 11.32 7 12 C5.68 12 4.36 12 3 12 C3 14.97 3 17.94 3 21 C2.01 21 1.02 21 0 21 C0 14.07 0 7.14 0 0 Z " fill="#F1F1F1" transform="translate(59,34)"/>
<path d="M0 0 C1.99954746 -0.04254356 4.00041636 -0.04080783 6 0 C7 1 7 1 7.125 3.5 C7 6 7 6 6 7 C4.00041636 7.04080783 1.99954746 7.04254356 0 7 C0 4.69 0 2.38 0 0 Z " fill="#101010" transform="translate(62,37)"/>
<path d="M0 0 C2.475 0.495 2.475 0.495 5 1 C4.67 2.32 4.34 3.64 4 5 C2.68 5 1.36 5 0 5 C0 3.35 0 1.7 0 0 Z " fill="#BCBCBC" transform="translate(105,39)"/>
<path d="M0 0 C1.98 0.495 1.98 0.495 4 1 C4 1.99 4 2.98 4 4 C3.01 4.33 2.02 4.66 1 5 C0.34 4.01 -0.32 3.02 -1 2 C-0.67 1.34 -0.34 0.68 0 0 Z " fill="#131313" transform="translate(140,35)"/>
<path d="" fill="#414141" transform="translate(0,0)"/>
</svg>
