<?xml version="1.0" encoding="UTF-8"?>
<svg version="1.1" xmlns="http://www.w3.org/2000/svg" width="96" height="96">
<path d="M0 0 C2.55324504 2.55324504 2.41486326 3.68766832 2.5625 7.25 C2.49465754 15.23602668 -1.0937369 21.26368914 -5 28 C-3.07260715 27.82062304 -3.07260715 27.82062304 -1 27 C3.97210261 20.4080906 5.47154663 11.92807518 7 4 C11.34264101 4.73158963 12.92393685 6.72258846 15.61328125 10.03515625 C19.51927311 15.56956162 21.19364645 22.41118071 23.1875 28.8125 C24.70404218 32.33637303 24.70404218 32.33637303 28.375 33 C31.46530697 33 34.03156921 32.80957203 37 32 C36.46292236 35.86695903 35.41445371 37.97060499 33 41 C40.60132042 38.59515748 46.36525251 34.75456629 52.53125 29.828125 C55 28 55 28 57 28 C56.62892666 33.42089744 54.55543954 36.24490775 50.875 40 C50.37871094 40.5261792 49.88242188 41.0523584 49.37109375 41.59448242 C46.71992029 44.3683157 44.00560242 46.91962768 41 49.3125 C37.55730443 52.08144608 36.50302501 54.88645788 35 59 C34.34 59.66 33.68 60.32 33 61 C32.01 61 31.02 61 30 61 C30 61.66 30 62.32 30 63 C25.90020974 62.42407708 23.439312 60.21168346 20.25 57.6875 C12.43636178 51.36558772 12.43636178 51.36558772 3 49 C1.45703125 46.98828125 1.45703125 46.98828125 -0.1875 44.3125 C-3.46565872 39.50771436 -6.3171236 35.79849596 -12 34 C-15.48927549 33.73252941 -18.84563232 33.74535915 -22.33984375 33.921875 C-23.21769531 33.94765625 -24.09554688 33.9734375 -25 34 C-26 33 -26 33 -26.1875 29.6875 C-26.01223518 26.24062513 -25.61346865 24.88893794 -24 22 C-22.54176788 21.9729957 -21.08339325 21.95360213 -19.625 21.9375 C-18.81289063 21.92589844 -18.00078125 21.91429688 -17.1640625 21.90234375 C-15 22 -15 22 -13 23 C-12.94581674 20.91695462 -12.90712449 18.83350232 -12.875 16.75 C-12.85179687 15.58984375 -12.82859375 14.4296875 -12.8046875 13.234375 C-12.99374054 10.10365663 -13.50373246 8.66264933 -15 6 C-15 5.01 -15 4.02 -15 3 C-13.44033782 2.491217 -11.87710759 1.99336531 -10.3125 1.5 C-9.44238281 1.2215625 -8.57226562 0.943125 -7.67578125 0.65625 C-4.9623784 -0.0092269 -2.77927669 -0.26514394 0 0 Z M3 33 C2.67 33.66 2.34 34.32 2 35 C2.76721468 37.24416428 2.76721468 37.24416428 3.9375 39.625 C4.31777344 40.44226562 4.69804688 41.25953125 5.08984375 42.1015625 C5.54037109 43.04128906 5.54037109 43.04128906 6 44 C6.33 44 6.66 44 7 44 C7.12469099 38.42169984 7.12469099 38.42169984 6 33 C5.01 33 4.02 33 3 33 Z M10 41 C9.74969023 43.41619823 9.74969023 43.41619823 10 46 C13.22791555 48.1519437 14.28400809 48.20086443 18 48 C18 47.01 18 46.02 18 45 C15.36 43.68 12.72 42.36 10 41 Z M29 54 C29 54.99 29 55.98 29 57 C29.99 57 30.98 57 32 57 C31.67 56.01 31.34 55.02 31 54 C30.34 54 29.68 54 29 54 Z " fill="#070707" transform="translate(35,5)"/>
<path d="M0 0 C0.66 0 1.32 0 2 0 C2 1.32 2 2.64 2 4 C2.804375 4.144375 3.60875 4.28875 4.4375 4.4375 C7 5 7 5 8 6 C8.14115161 8.67058851 8.04247107 11.32432238 8 14 C7.01 14.33 6.02 14.66 5 15 C5 12.36 5 9.72 5 7 C4.01 7 3.02 7 2 7 C2 9.64 2 12.28 2 15 C-0.3125 15.25 -0.3125 15.25 -3 15 C-4.8125 13 -4.8125 13 -6 11 C-6.66 12.32 -7.32 13.64 -8 15 C-8.66 15 -9.32 15 -10 15 C-10 10.38 -10 5.76 -10 1 C-7.69 1 -5.38 1 -3 1 C-1.33718135 4.52126303 -0.84852526 6.28969251 -2 10 C-1.67 10.66 -1.34 11.32 -1 12 C-0.67 8.04 -0.34 4.08 0 0 Z M-7 4 C-7 4.66 -7 5.32 -7 6 C-6.34 6 -5.68 6 -5 6 C-5 5.34 -5 4.68 -5 4 C-5.66 4 -6.32 4 -7 4 Z " fill="#221F1F" transform="translate(19,71)"/>
<path d="M0 0 C2.5625 0.1875 2.5625 0.1875 5.5625 1.1875 C7.9031065 0.90980092 10.23874308 0.58210023 12.5625 0.1875 C12.5625 1.1775 12.5625 2.1675 12.5625 3.1875 C10.9125 3.1875 9.2625 3.1875 7.5625 3.1875 C7.8925 4.5075 8.2225 5.8275 8.5625 7.1875 C9.8825 7.1875 11.2025 7.1875 12.5625 7.1875 C12.2325 8.5075 11.9025 9.8275 11.5625 11.1875 C8.5925 10.6925 8.5925 10.6925 5.5625 10.1875 C5.5625 9.5275 5.5625 8.8675 5.5625 8.1875 C5.005625 8.703125 4.44875 9.21875 3.875 9.75 C1.5625 11.1875 1.5625 11.1875 -1.125 10.9375 C-3.4375 10.1875 -3.4375 10.1875 -4.4375 9.1875 C-4.625 5.75 -4.625 5.75 -4.4375 2.1875 C-2.4375 0.1875 -2.4375 0.1875 0 0 Z M-1.4375 3.1875 C-1.4375 4.8375 -1.4375 6.4875 -1.4375 8.1875 C-0.4475 7.8575 0.5425 7.5275 1.5625 7.1875 C1.5625 5.8675 1.5625 4.5475 1.5625 3.1875 C0.5725 3.1875 -0.4175 3.1875 -1.4375 3.1875 Z " fill="#0D0606" transform="translate(46.4375,74.8125)"/>
<path d="M0 0 C2.33944736 0.28730055 4.6739143 0.61936779 7 1 C7.33 0.67 7.66 0.34 8 0 C9.66617115 -0.04063832 11.33388095 -0.042721 13 0 C12.79375 0.61875 12.5875 1.2375 12.375 1.875 C12.25125 2.57625 12.1275 3.2775 12 4 C12.66 4.66 13.32 5.32 14 6 C13.625 8.125 13.625 8.125 13 10 C10.625 10.625 10.625 10.625 8 11 C7.34 10.34 6.68 9.68 6 9 C5.34 9.66 4.68 10.32 4 11 C1.5 10.8125 1.5 10.8125 -1 10 C-3 7 -3 7 -2.75 4.4375 C-2 2 -2 2 0 0 Z M1 3 C0.67 4.32 0.34 5.64 0 7 C1.32 7 2.64 7 4 7 C3.67 5.68 3.34 4.36 3 3 C2.34 3 1.68 3 1 3 Z M7 5 C7 5.66 7 6.32 7 7 C8.32 7.33 9.64 7.66 11 8 C10.02149805 6.97895449 9.02019573 5.9793879 8 5 C7.67 5 7.34 5 7 5 Z " fill="#130909" transform="translate(78,75)"/>
<path d="M0 0 C0.825 0.04125 1.65 0.0825 2.5 0.125 C3.16 0.125 3.82 0.125 4.5 0.125 C6.83333333 0.125 9.16666667 0.125 11.5 0.125 C10.5 3.125 10.5 3.125 8.5 4.125 C8.09270772 6.44656597 7.75561323 8.7818787 7.5 11.125 C6.51 10.795 5.52 10.465 4.5 10.125 C4.5 8.805 4.5 7.485 4.5 6.125 C3.51 6.455 2.52 6.785 1.5 7.125 C2.16 7.125 2.82 7.125 3.5 7.125 C3.5 8.115 3.5 9.105 3.5 10.125 C1.25 10.875 1.25 10.875 -1.5 11.125 C-3.875 9.5 -3.875 9.5 -5.5 7.125 C-5.30595218 3.0499957 -4.49262693 0.22463135 0 0 Z " fill="#1B0B0A" transform="translate(64.5,74.875)"/>
<path d="M0 0 C2.33294775 -0.04241723 4.66702567 -0.04092937 7 0 C8 1 8 1 8.09765625 3.28515625 C8.08605469 4.20167969 8.07445312 5.11820312 8.0625 6.0625 C8.05347656 6.98160156 8.04445313 7.90070313 8.03515625 8.84765625 C8.02355469 9.55792969 8.01195312 10.26820312 8 11 C7.01 10.67 6.02 10.34 5 10 C5 7.69 5 5.38 5 3 C4.34 3 3.68 3 3 3 C3 5.31 3 7.62 3 10 C2.01 10.33 1.02 10.66 0 11 C0 7.37 0 3.74 0 0 Z " fill="#1B1818" transform="translate(33,75)"/>
<path d="M0 0 C0.66 0 1.32 0 2 0 C2 1.32 2 2.64 2 4 C2.804375 4.144375 3.60875 4.28875 4.4375 4.4375 C7 5 7 5 8 6 C8.14115161 8.67058851 8.04247107 11.32432238 8 14 C7.01 14.33 6.02 14.66 5 15 C5 12.36 5 9.72 5 7 C4.01 7 3.02 7 2 7 C2 9.31 2 11.62 2 14 C1.34 14 0.68 14 0 14 C0 9.38 0 4.76 0 0 Z " fill="#141212" transform="translate(19,71)"/>
<path d="M0 0 C2.95529457 0.36040178 3.75137927 1.02476855 5.5625 3.3125 C4.5725 4.7975 4.5725 4.7975 3.5625 6.3125 C2.86936092 7.96833225 2.19775576 9.63360979 1.5625 11.3125 C-3.3125 10.4375 -3.3125 10.4375 -4.4375 9.3125 C-4.625 5.875 -4.625 5.875 -4.4375 2.3125 C-2.4375 0.3125 -2.4375 0.3125 0 0 Z M-1.4375 3.3125 C-1.4375 4.9625 -1.4375 6.6125 -1.4375 8.3125 C-0.4475 7.9825 0.5425 7.6525 1.5625 7.3125 C1.5625 5.9925 1.5625 4.6725 1.5625 3.3125 C0.5725 3.3125 -0.4175 3.3125 -1.4375 3.3125 Z " fill="#1E1C1C" transform="translate(46.4375,74.6875)"/>
<path d="M0 0 C0.99 0 1.98 0 3 0 C3 4.29 3 8.58 3 13 C2.01 13.33 1.02 13.66 0 14 C0 9.38 0 4.76 0 0 Z " fill="#1D1A1A" transform="translate(29,72)"/>
<path d="M0 0 C2.97 0.495 2.97 0.495 6 1 C4.68 1.33 3.36 1.66 2 2 C2.185625 2.680625 2.37125 3.36125 2.5625 4.0625 C3.08523943 7.57232191 2.61378577 10.52188063 2 14 C1.34 14 0.68 14 0 14 C0 9.38 0 4.76 0 0 Z " fill="#100F0F" transform="translate(9,72)"/>
<path d="M0 0 C0 0.66 0 1.32 0 2 C-0.99 2 -1.98 2 -3 2 C-2.67 4.64 -2.34 7.28 -2 10 C-3.32 9.67 -4.64 9.34 -6 9 C-6.93131785 5.95205066 -7.29757762 4.57949326 -5.8125 1.6875 C-4 0 -4 0 0 0 Z " fill="#0F0605" transform="translate(82,75)"/>
<path d="M0 0 C0.66 0 1.32 0 2 0 C2.91297308 4.97063121 2.91297308 9.02936879 2 14 C1.34 14 0.68 14 0 14 C0 9.38 0 4.76 0 0 Z " fill="#090707" transform="translate(19,71)"/>
<path d="M0 0 C0.66 0.99 1.32 1.98 2 3 C3.32 3 4.64 3 6 3 C5.67 4.32 5.34 5.64 5 7 C2.03 6.505 2.03 6.505 -1 6 C-1 5.34 -1 4.68 -1 4 C-1.66 3.67 -2.32 3.34 -3 3 C-2.01 2.01 -1.02 1.02 0 0 Z " fill="#1D0B0B" transform="translate(53,79)"/>
<path d="M0 0 C1.65 0 3.3 0 5 0 C4.34 2.64 3.68 5.28 3 8 C2.01 7.67 1.02 7.34 0 7 C0 4.69 0 2.38 0 0 Z " fill="#1E1C1D" transform="translate(42,42)"/>
<path d="M0 0 C0 0.99 0 1.98 0 3 C-0.99 3.66 -1.98 4.32 -3 5 C-4.19232613 7.05003955 -4.19232613 7.05003955 -5 9 C-5 6.36 -5 3.72 -5 1 C-3.35 0.67 -1.7 0.34 0 0 Z " fill="#090404" transform="translate(75,75)"/>
<path d="M0 0 C1.32 0.33 2.64 0.66 4 1 C4.625 2.875 4.625 2.875 5 5 C4.34 5.66 3.68 6.32 3 7 C3 6.34 3 5.68 3 5 C2.34 5 1.68 5 1 5 C0.67 3.35 0.34 1.7 0 0 Z " fill="#1A1717" transform="translate(13,72)"/>
<path d="M0 0 C6.15234375 0.5859375 6.15234375 0.5859375 8 1 C8.33 1.66 8.66 2.32 9 3 C7.3125 3.75 7.3125 3.75 5 4 C2.25 2.0625 2.25 2.0625 0 0 Z " fill="#1F1E1F" transform="translate(46,46)"/>
</svg>
