<?xml version="1.0" encoding="UTF-8"?>
<svg version="1.1" xmlns="http://www.w3.org/2000/svg" width="192" height="108">
<path d="M0 0 C3.7823952 1.63310475 6.0473826 2.93289205 8.7578125 6.05859375 C10.41823731 11.70540471 10.20861101 18.37694362 8.7578125 24.05859375 C6.39187141 27.89995468 3.66763887 30.07692533 -0.1796875 32.37109375 C-1.01371094 32.88285156 -1.84773438 33.39460938 -2.70703125 33.921875 C-5.58663364 35.21303724 -7.12423571 35.51499655 -10.2421875 35.05859375 C-13.03125 33.66796875 -13.03125 33.66796875 -15.8671875 31.80859375 C-16.80820312 31.2053125 -17.74921875 30.60203125 -18.71875 29.98046875 C-21.12003504 28.15162627 -22.69438229 26.63652607 -24.2421875 24.05859375 C-24.0939511 21.01974748 -23.67144359 19.55653082 -21.6796875 17.24609375 C-21.2053125 16.85421875 -20.7309375 16.46234375 -20.2421875 16.05859375 C-20.9021875 15.68734375 -21.5621875 15.31609375 -22.2421875 14.93359375 C-24.2421875 13.05859375 -24.2421875 13.05859375 -24.8046875 10.12109375 C-24.2421875 7.05859375 -24.2421875 7.05859375 -22.1796875 4.93359375 C-21.2103125 4.31484375 -20.2409375 3.69609375 -19.2421875 3.05859375 C-18.1696875 2.31609375 -17.0971875 1.57359375 -15.9921875 0.80859375 C-10.40185716 -2.18493798 -5.97098787 -1.73374467 0 0 Z M-8.2421875 16.05859375 C-8.2421875 21.99859375 -8.2421875 27.93859375 -8.2421875 34.05859375 C-7.9121875 34.05859375 -7.5821875 34.05859375 -7.2421875 34.05859375 C-7.2421875 28.11859375 -7.2421875 22.17859375 -7.2421875 16.05859375 C-7.5721875 16.05859375 -7.9021875 16.05859375 -8.2421875 16.05859375 Z M2.7578125 19.05859375 C3.7578125 21.05859375 3.7578125 21.05859375 3.7578125 21.05859375 Z " fill="#000000" transform="translate(32.2421875,36.94140625)"/>
<path d="M0 0 C1.65 0.33 3.3 0.66 5 1 C5 6.94 5 12.88 5 19 C6.98 19 8.96 19 11 19 C12.51421001 17.48578999 12.21309856 16.07527232 12.31640625 13.96484375 C12.35830078 13.15595703 12.40019531 12.34707031 12.44335938 11.51367188 C12.50233398 10.2384668 12.50233398 10.2384668 12.5625 8.9375 C12.60568359 8.08349609 12.64886719 7.22949219 12.69335938 6.34960938 C12.79976702 4.23327963 12.90041731 2.11666187 13 0 C14.65 0 16.3 0 18 0 C18.10822792 3.06345144 18.18741479 6.1230601 18.25 9.1875 C18.30027344 10.48397461 18.30027344 10.48397461 18.3515625 11.80664062 C18.41552512 15.98020133 18.36284877 18.3744263 16.23046875 22.05078125 C13.34968443 24.56831431 11.67000685 24.89522767 7.96484375 25.13671875 C4.95738362 24.92745214 3.27028219 23.93641716 1 22 C-1.75526342 18.14071116 -1.25940519 13.85009612 -1.1875 9.3125 C-1.18685547 8.52810547 -1.18621094 7.74371094 -1.18554688 6.93554688 C-1.14046848 1.14046848 -1.14046848 1.14046848 0 0 Z " fill="#040406" transform="translate(146,41)"/>
<path d="M0 0 C2.1875 1.6875 2.1875 1.6875 3.1875 4.6875 C2.5275 5.3475 1.8675 6.0075 1.1875 6.6875 C0.1975 6.6875 -0.7925 6.6875 -1.8125 6.6875 C-1.8125 6.0275 -1.8125 5.3675 -1.8125 4.6875 C-4.1225 4.3575 -6.4325 4.0275 -8.8125 3.6875 C-8.8125 5.0075 -8.8125 6.3275 -8.8125 7.6875 C-7.94625 7.77 -7.08 7.8525 -6.1875 7.9375 C-2.16359665 8.83170074 0.12479058 9.9164772 3.1875 12.6875 C3.73891518 16.17979615 3.87102184 18.40589654 2.1875 21.5625 C-0.98333442 23.34609436 -4.22749468 23.82053731 -7.8125 23.6875 C-10.78410035 22.33089984 -12.51533441 20.98466559 -14.8125 18.6875 C-14.8125 17.6975 -14.8125 16.7075 -14.8125 15.6875 C-13.4925 15.3575 -12.1725 15.0275 -10.8125 14.6875 C-10.4825 15.6775 -10.1525 16.6675 -9.8125 17.6875 C-7.5025 17.6875 -5.1925 17.6875 -2.8125 17.6875 C-2.8125 16.6975 -2.8125 15.7075 -2.8125 14.6875 C-3.51117188 14.46835937 -4.20984375 14.24921875 -4.9296875 14.0234375 C-12.38109259 11.42705556 -12.38109259 11.42705556 -14.5625 7.6875 C-14.83192816 4.45436211 -14.80371523 3.22177393 -12.8125 0.6875 C-8.70744345 -2.24468325 -4.46432675 -2.08335248 0 0 Z " fill="#040406" transform="translate(65.8125,42.3125)"/>
<path d="M0 0 C12.45694185 -0.37000817 12.45694185 -0.37000817 14.86328125 1.26953125 C16.82241949 4.25199943 17.10201259 7.5179703 17 11 C15.9375 13.875 15.9375 13.875 14 16 C10.9375 17.375 10.9375 17.375 8 18 C7.34 17.67 6.68 17.34 6 17 C5.67 18.98 5.34 20.96 5 23 C3.35 23 1.7 23 0 23 C0 15.41 0 7.82 0 0 Z M5 5 C5 7.31 5 9.62 5 12 C6.65614657 12.38218767 8.32457024 12.71395102 10 13 C11.41577477 11.81575674 11.41577477 11.81575674 11.0625 8.4375 C11.041875 7.303125 11.02125 6.16875 11 5 C7.95086772 3.98888907 7.95086772 3.98888907 5 5 Z " fill="#040407" transform="translate(165,48)"/>
<path d="M0 0 C1.67542976 0.28604898 3.34385343 0.61781233 5 1 C5 2.98 5 4.96 5 7 C6.11375 6.690625 6.11375 6.690625 7.25 6.375 C10.34743429 5.9526226 11.45131221 6.27053328 14 8 C15.50156874 11.00313748 15.09281204 13.79067522 15.0625 17.125 C15.05347656 18.40632813 15.04445312 19.68765625 15.03515625 21.0078125 C15.02355469 21.99523437 15.01195312 22.98265625 15 24 C13.35 24 11.7 24 10 24 C9.67 20.04 9.34 16.08 9 12 C7.68 12.33 6.36 12.66 5 13 C5 16.63 5 20.26 5 24 C3.02 24 1.04 24 -1 24 C-1.02887236 20.18751574 -1.04675492 16.3750593 -1.0625 12.5625 C-1.07087891 11.47388672 -1.07925781 10.38527344 -1.08789062 9.26367188 C-1.09111328 8.22919922 -1.09433594 7.19472656 -1.09765625 6.12890625 C-1.10289307 5.17056885 -1.10812988 4.21223145 -1.11352539 3.22485352 C-1 1 -1 1 0 0 Z " fill="#040406" transform="translate(129,41)"/>
<path d="M0 0 C2.475 0.495 2.475 0.495 5 1 C5.33 4.3 5.66 7.6 6 11 C6.99 9.68 7.98 8.36 9 7 C12.1875 6.75 12.1875 6.75 15 7 C13.948125 8.3303125 13.948125 8.3303125 12.875 9.6875 C10.63457143 12.75831685 10.63457143 12.75831685 11.625 15.5 C12.305625 16.7375 12.305625 16.7375 13 18 C13.67795528 19.99620166 14.34733531 21.99538701 15 24 C12.75 24.375 12.75 24.375 10 24 C7.6875 21 7.6875 21 6 18 C5.67 19.98 5.34 21.96 5 24 C3.35 24 1.7 24 0 24 C0 16.08 0 8.16 0 0 Z " fill="#040407" transform="translate(70,41)"/>
<path d="M0 0 C1.9375 1 1.9375 1 3 3 C3.5290635 5.68235196 3.77574285 8.26406275 4 11 C0.7 11 -2.6 11 -6 11 C-6 11.33 -6 11.66 -6 12 C-3.36 12 -0.72 12 2 12 C2 13.32 2 14.64 2 16 C-0.55503162 17.67059759 -1.9038633 18.0040057 -5 17.875 C-8.60926099 16.82229888 -9.94222047 16.16581466 -12 13 C-12.77577846 8.69363796 -12.73064701 5.24818864 -10.5 1.4375 C-6.73635524 -0.72659573 -4.31944059 -0.47993784 0 0 Z M-6 4 C-6.33 4.66 -6.66 5.32 -7 6 C-5.02 6 -3.04 6 -1 6 C-1.33 5.34 -1.66 4.68 -2 4 C-3.32 4 -4.64 4 -6 4 Z " fill="#040406" transform="translate(96,48)"/>
<path d="M0 0 C1.98 0 3.96 0 6 0 C6 1.65 6 3.3 6 5 C7.32 5.33 8.64 5.66 10 6 C10 7.32 10 8.64 10 10 C8.68 10.33 7.36 10.66 6 11 C6 13.64 6 16.28 6 19 C7.32 19 8.64 19 10 19 C9.67 20.32 9.34 21.64 9 23 C6.48910624 23.89674777 5.35464891 24.13172674 2.8125 23.1875 C1 22 1 22 0 20 C-0.06996014 18.29297265 -0.08440154 16.58331997 -0.0625 14.875 C-0.05347656 13.96492188 -0.04445313 13.05484375 -0.03515625 12.1171875 C-0.02355469 11.41851562 -0.01195313 10.71984375 0 10 C-0.66 10 -1.32 10 -2 10 C-2 8.68 -2 7.36 -2 6 C-1.34 6 -0.68 6 0 6 C0 4.02 0 2.04 0 0 Z " fill="#040406" transform="translate(102,42)"/>
<path d="M0 0 C2 1.3125 2 1.3125 3 3 C3 3.99 3 4.98 3 6 C1.68 6.33 0.36 6.66 -1 7 C-1.33 6.34 -1.66 5.68 -2 5 C-3.32 5 -4.64 5 -6 5 C-6 7.31 -6 9.62 -6 12 C-4.68 12 -3.36 12 -2 12 C-1.34 11.34 -0.68 10.68 0 10 C0.99 10.33 1.98 10.66 3 11 C2.63680051 13.6331963 2.14494976 14.84431322 0.3125 16.8125 C-2.90831337 18.46643119 -4.58195481 18.06813912 -8 17 C-10.375 15.5 -10.375 15.5 -12 13 C-12.77577846 8.69363796 -12.73064701 5.24818864 -10.5 1.4375 C-6.73635524 -0.72659573 -4.31944059 -0.47993784 0 0 Z " fill="#040406" transform="translate(124,48)"/>
</svg>
